<svg xmlns="http://www.w3.org/2000/svg" width="300" height="300" viewBox="0 0 300 300"><path fill="#fff" d="M150 2a148 148 0 1 0 148 148A148 148 0 0 0 150 2zm84.2 92.6l25.7-14.8A5.9 5.9 0 0 1 268 82a6 6 0 0 1-2.2 8.1l-25.7 14.8a5.9 5.9 0 0 1-5.9-10.3zm-90.1-74.8a5.9 5.9 0 1 1 11.8 0v29.6a5.9 5.9 0 1 1-11.8 0zM81.9 32.1a5.9 5.9 0 0 1 8.1 2.1l14.8 25.7a5.9 5.9 0 1 1-10.2 5.9L79.8 40.2a5.9 5.9 0 0 1 2.1-8.1zM13.8 150a5.9 5.9 0 0 1 6-5.9h29.6a5.9 5.9 0 0 1 0 11.8H19.8a5.9 5.9 0 0 1-6-5.9zm52 55.4l-25.6 14.8a5.9 5.9 0 1 1-6-10.2l25.7-14.8a5.9 5.9 0 0 1 8.1 2.1 6 6 0 0 1-2.2 8.1zM68 102.6a5.9 5.9 0 0 1-8.1 2.2L34.3 90a5.9 5.9 0 0 1-2.2-8.1 6 6 0 0 1 8.1-2.2l25.6 14.8a6 6 0 0 1 2.2 8.1zm36.8 137.5L90 265.7a5.9 5.9 0 0 1-8.1 2.2 6 6 0 0 1-2.2-8.1l14.8-25.6a5.9 5.9 0 0 1 10.3 5.9zm51.1 40.1a6 6 0 1 1-11.9 0v-29.6a5.9 5.9 0 0 1 5.9-5.9 6 6 0 0 1 5.9 5.9zm62.1-12.3a5.9 5.9 0 0 1-8.1-2.1l-14.7-25.7a5.8 5.8 0 0 1 2.1-8 5.9 5.9 0 0 1 8.1 2.1l14.8 25.7a5.8 5.8 0 0 1-2.2 8zm2.3-227.7l-14.8 25.6a5.9 5.9 0 0 1-8.1 2.2 6 6 0 0 1-2.2-8.1l14.9-25.6a5.9 5.9 0 0 1 8.1-2.2 6 6 0 0 1 2.1 8.1zm47.6 177.9a5.9 5.9 0 0 1-8.1 2.2l-25.6-14.8a5.9 5.9 0 0 1-2.2-8.1 6 6 0 0 1 8.1-2.2l25.6 14.8a5.9 5.9 0 0 1 2.2 8.1zm12.3-62.1h-29.6a6 6 0 0 1 0-11.9h29.6a6 6 0 1 1 0 11.9z"/></svg>